<svg xmlns="http://www.w3.org/2000/svg" width="293.455" height="105.6" viewBox="0 0 293.455 105.6">
  <g id="Group_1" data-name="Group 1" transform="translate(-988.23 -595.789)">
    <path id="Union_1" data-name="Union 1" d="M952,557.389a20.111,20.111,0,0,1-4.573-.525,14.327,14.327,0,0,0,1.829-.9,14.045,14.045,0,0,0,5.161-5.34,16.653,16.653,0,0,0,1.958-8.277V498.025a4.4,4.4,0,0,0-1.246-3.16,4.622,4.622,0,0,0-6.408,0,4.4,4.4,0,0,0-1.246,3.16v42.008a15.3,15.3,0,0,1-.49,3.961,6.624,6.624,0,0,1-1.691,3.026,7.671,7.671,0,0,1-3.248,1.824,7.813,7.813,0,0,0-2.714,1.513,3.168,3.168,0,0,0-1,1.633,19.949,19.949,0,0,1-6.331-14.6v-38a20.009,20.009,0,0,1,15.146-19.407,5.185,5.185,0,0,0-.293,1.845v1.424a3.859,3.859,0,0,0,1.156,3.16,5.987,5.987,0,0,0,3.739.934,6.627,6.627,0,0,0,3.871-.89,3.764,3.764,0,0,0,1.2-3.2v-1.424a4.461,4.461,0,0,0-.59-2.438h11.209l15.282-26.47a2.26,2.26,0,0,1,3.914,2.259l-13.978,24.211h6.651l6.8-11.784a2.26,2.26,0,0,1,3.914,2.259l-5.5,9.525H990a19.94,19.94,0,0,1,14.142,5.858,20.183,20.183,0,0,1,1.784,2.04l11.573-20.045a2.259,2.259,0,1,1,3.913,2.26l-12.89,22.326a19.89,19.89,0,0,1,1.478,7.561V530.32l13.469-23.328a2.259,2.259,0,1,1,3.913,2.259l-17.5,30.309A19.983,19.983,0,0,1,990,557.389Zm16.924-29.994a3.586,3.586,0,0,0-1.868,2.8,4.752,4.752,0,0,0,.712,2.893,18.6,18.6,0,0,0,8.5,6.363,29.547,29.547,0,0,0,10.1,1.825,21.2,21.2,0,0,0,8.143-1.6,16.264,16.264,0,0,0,6.408-4.674,11.331,11.331,0,0,0,2.536-7.43,12.536,12.536,0,0,0-1.38-6.186,12.271,12.271,0,0,0-3.56-4,20.192,20.192,0,0,0-4.9-2.537c-1.808-.651-3.649-1.22-5.474-1.69a50.441,50.441,0,0,1-5.251-1.6,11.808,11.808,0,0,1-3.872-2.225,4.6,4.6,0,0,1-1.468-3.56,4.966,4.966,0,0,1,1.246-3.649,6.743,6.743,0,0,1,3.071-1.736,13.631,13.631,0,0,1,3.515-.49,14.662,14.662,0,0,1,6.052,1.2,11.494,11.494,0,0,1,4.361,3.338,3.937,3.937,0,0,0,2.492.979c.09.005.18.008.268.008a3.51,3.51,0,0,0,2.312-.81,3.22,3.22,0,0,0,1.469-2.848,5.151,5.151,0,0,0-1.023-2.759,15.763,15.763,0,0,0-4.628-3.738,22.847,22.847,0,0,0-5.518-2.092,23.926,23.926,0,0,0-5.43-.667,20.041,20.041,0,0,0-8.232,1.69,15.867,15.867,0,0,0-6.141,4.718,11.427,11.427,0,0,0-2.359,7.209,11.964,11.964,0,0,0,1.469,6.141,12.421,12.421,0,0,0,3.783,4.048,21.8,21.8,0,0,0,5.206,2.538c1.919.65,3.85,1.247,5.74,1.778,1.772.474,3.449,1,4.984,1.559a10.869,10.869,0,0,1,3.738,2.181,4.666,4.666,0,0,1,1.424,3.559,5.047,5.047,0,0,1-1.335,3.784,7.155,7.155,0,0,1-3.2,1.78,17.925,17.925,0,0,1-3.649.578,15.979,15.979,0,0,1-7.432-1.6,19.962,19.962,0,0,1-5.562-4.361,4.34,4.34,0,0,0-2.625-1.38c-.13-.013-.261-.019-.39-.019A4.1,4.1,0,0,0,968.925,527.395Z" transform="translate(254 144)" fill="#fff"/>
    <path id="Path_2" data-name="Path 2" d="M29.815-47.615q6.141,0,9.523,2.625A13.9,13.9,0,0,1,44.1-37.914a32.944,32.944,0,0,1,1.379,9.79V-4.539a4.4,4.4,0,0,1-1.29,3.249A4.3,4.3,0,0,1,41.029,0a4.258,4.258,0,0,1-3.2-1.29,4.489,4.489,0,0,1-1.246-3.249V-28.124a18.217,18.217,0,0,0-.846-5.7A7.967,7.967,0,0,0,32.8-37.914a9.8,9.8,0,0,0-5.83-1.513,12.488,12.488,0,0,0-6.186,1.513A10.681,10.681,0,0,0,16.6-33.82a11.316,11.316,0,0,0-1.468,5.7V-4.539A4.4,4.4,0,0,1,13.839-1.29,4.3,4.3,0,0,1,10.68,0a4.258,4.258,0,0,1-3.2-1.29A4.489,4.489,0,0,1,6.23-4.539V-61.321a4.489,4.489,0,0,1,1.246-3.248,4.258,4.258,0,0,1,3.2-1.291,4.3,4.3,0,0,1,3.16,1.291,4.4,4.4,0,0,1,1.291,3.248v24.3l-1.6.89a14.462,14.462,0,0,1,2.092-4.005,18.081,18.081,0,0,1,3.649-3.738,18.9,18.9,0,0,1,4.851-2.715A15.776,15.776,0,0,1,29.815-47.615ZM79.21.89A25.672,25.672,0,0,1,66.438-2.181a21.46,21.46,0,0,1-8.455-8.455A25.02,25.02,0,0,1,55-22.962a26.709,26.709,0,0,1,3.16-13.395A22.487,22.487,0,0,1,66.438-44.9a21.152,21.152,0,0,1,10.813-2.982,20.3,20.3,0,0,1,8.232,1.736,22.268,22.268,0,0,1,6.986,4.806,23.24,23.24,0,0,1,4.806,7.209A23.733,23.733,0,0,1,99.146-25.1a4,4,0,0,1-1.424,2.937A4.609,4.609,0,0,1,94.607-21H60.075l-2.136-7.565H91.4l-1.691,1.6v-2.225a9.986,9.986,0,0,0-2.136-5.473,12.769,12.769,0,0,0-4.584-3.649A13.206,13.206,0,0,0,77.252-39.6a15.957,15.957,0,0,0-5.162.846,11.161,11.161,0,0,0-4.361,2.714,13.7,13.7,0,0,0-3.026,4.94A21.73,21.73,0,0,0,63.546-23.5a17.177,17.177,0,0,0,2.047,8.544A14.65,14.65,0,0,0,71.111-9.3a15.213,15.213,0,0,0,7.743,2,18.17,18.17,0,0,0,5.34-.668,13.242,13.242,0,0,0,3.56-1.647q1.424-.979,2.492-1.869a5.488,5.488,0,0,1,2.67-.8,3.548,3.548,0,0,1,2.67,1.113,3.665,3.665,0,0,1,1.068,2.625A4.586,4.586,0,0,1,94.7-4.984,21.525,21.525,0,0,1,88.065-.89,22.593,22.593,0,0,1,79.21.89Zm39.16-5.429a4.4,4.4,0,0,1-1.291,3.249A4.3,4.3,0,0,1,113.92,0a4.3,4.3,0,0,1-3.16-1.29,4.4,4.4,0,0,1-1.29-3.249V-61.321a4.328,4.328,0,0,1,1.335-3.248,4.446,4.446,0,0,1,3.2-1.291,4.115,4.115,0,0,1,3.16,1.291,4.582,4.582,0,0,1,1.2,3.248Zm22.873,0a4.4,4.4,0,0,1-1.29,3.249A4.3,4.3,0,0,1,136.793,0a4.3,4.3,0,0,1-3.16-1.29,4.4,4.4,0,0,1-1.29-3.249V-61.321a4.328,4.328,0,0,1,1.335-3.248,4.446,4.446,0,0,1,3.2-1.291,4.115,4.115,0,0,1,3.16,1.291,4.582,4.582,0,0,1,1.2,3.248Zm56.871-18.868a24.734,24.734,0,0,1-3.16,12.594,23.151,23.151,0,0,1-8.5,8.589A23.4,23.4,0,0,1,174.44.89a23.471,23.471,0,0,1-11.971-3.115,23.048,23.048,0,0,1-8.544-8.589,24.734,24.734,0,0,1-3.16-12.594,24.913,24.913,0,0,1,3.16-12.682,23.386,23.386,0,0,1,8.544-8.633,23.214,23.214,0,0,1,11.971-3.16,23.146,23.146,0,0,1,12.015,3.16,23.494,23.494,0,0,1,8.5,8.633A24.913,24.913,0,0,1,198.114-23.407Zm-8.9,0a17.546,17.546,0,0,0-1.958-8.5,15.075,15.075,0,0,0-5.3-5.7,13.868,13.868,0,0,0-7.521-2.091,13.71,13.71,0,0,0-7.432,2.091,15.423,15.423,0,0,0-5.34,5.7,17.228,17.228,0,0,0-2,8.5,17.1,17.1,0,0,0,2,8.366,14.982,14.982,0,0,0,5.34,5.7A13.933,13.933,0,0,0,174.44-7.3a14.094,14.094,0,0,0,7.521-2.047,14.654,14.654,0,0,0,5.3-5.7A17.418,17.418,0,0,0,189.214-23.407Z" transform="translate(982 684.388)" fill="#fff"/>
  </g>
</svg>
